# xmcd CD database file
#
# Track frame offsets:
#	150
#	14337
#	28322
#	42327
#	60072
#	80432
#	97927
#	109322
#	127590
#	145755
#	157990
#	177292
#	197865
#	213580
#	230260
#	245465
#	261190
#
# Disc length: 3767 seconds
#
# Revision: 2
# Processed by: cddbd v1.5.2PL0 Copyright (c) Steve Scherf et al.
# Submitted via: CDex 1.51
#
DISCID=db0eb511
DTITLE=Gene Parsons - I Hope They Let Us In
DYEAR=2001
DGENRE=Country
TTITLE0=Sing Down
TTITLE1=Sweet Susannah
TTITLE2=Rhumba Man
TTITLE3=Gunga Din
TTITLE4=Abilene
TTITLE5=Bugler
TTITLE6=Do Not Disturb
TTITLE7=Dark Moon
TTITLE8=Willin'
TTITLE9=Take A City Bride
TTITLE10=Sweet Desert Childhood
TTITLE11=Studebaker Story
TTITLE12=Banjo Dog
TTITLE13=Way Out There
TTITLE14=I Must Be A Tree
TTITLE15=Blue
TTITLE16=You Ain't Going Nowhere
EXTD=YEAR: 2001
EXTT0=
EXTT1=
EXTT2=
EXTT3=
EXTT4=
EXTT5=
EXTT6=
EXTT7=
EXTT8=
EXTT9=
EXTT10=
EXTT11=
EXTT12=
EXTT13=
EXTT14=
EXTT15=
EXTT16=
PLAYORDER=
